<svg id="Layer_1" data-name="Layer 1" xmlns="http://www.w3.org/2000/svg" viewBox="0 0 1856.25 66.77"><defs><style>.cls-1{fill:#fcb040;}.cls-2{fill:#ffd56c;}.cls-3{fill:#f68e1f;}.cls-4{fill:#f26522;}.cls-5{fill:#f05622;}.cls-6{fill:#9c1a1d;}.cls-7{fill:#702323;}.cls-8{fill:#ef4c23;}.cls-9{fill:#ed1c24;}.cls-10{fill:#cf171f;}.cls-11{fill:#5e0000;}.cls-12{fill:#fff;}</style></defs><title>legend</title><rect class="cls-1" x="168.75" y="48.02" width="168.75" height="18.75"/><path class="cls-2" d="M9.37,48H168.75a0,0,0,0,1,0,0V66.77a0,0,0,0,1,0,0H9.37A9.37,9.37,0,0,1,0,57.39v0A9.37,9.37,0,0,1,9.37,48Z"/><rect class="cls-3" x="337.5" y="48.02" width="168.75" height="18.75"/><rect class="cls-4" x="506.25" y="48.02" width="168.75" height="18.75"/><rect class="cls-5" x="675" y="48.02" width="168.75" height="18.75"/><rect class="cls-6" x="1350" y="48.02" width="168.75" height="18.75"/><rect class="cls-7" x="1518.75" y="48.02" width="168.75" height="18.75"/><rect class="cls-8" x="843.75" y="48.02" width="168.75" height="18.75"/><rect class="cls-9" x="1012.5" y="48.02" width="168.75" height="18.75"/><rect class="cls-10" x="1181.25" y="48.02" width="168.75" height="18.75"/><path class="cls-11" d="M1687.5,48h159.38a9.37,9.37,0,0,1,9.37,9.37v0a9.37,9.37,0,0,1-9.37,9.37H1687.5a0,0,0,0,1,0,0V48A0,0,0,0,1,1687.5,48Z"/><path class="cls-12" d="M21.88,31v4.58H3.49V6.45H8.78V31h13.1Z"/><path class="cls-12" d="M45.11,24.55a14.18,14.18,0,0,1-.76,4.75,10.53,10.53,0,0,1-2.14,3.65,9.63,9.63,0,0,1-3.34,2.35,10.79,10.79,0,0,1-4.3.84,10.64,10.64,0,0,1-4.28-.84A9.67,9.67,0,0,1,27,32.95a10.77,10.77,0,0,1-2.16-3.65A13.82,13.82,0,0,1,24,24.55a13.64,13.64,0,0,1,.78-4.72A10.62,10.62,0,0,1,27,16.19a9.65,9.65,0,0,1,3.34-2.33A10.76,10.76,0,0,1,34.57,13a10.91,10.91,0,0,1,4.26.82,9.4,9.4,0,0,1,3.34,2.33,10.83,10.83,0,0,1,2.16,3.63A13.66,13.66,0,0,1,45.11,24.55Zm-5.21,0a8.57,8.57,0,0,0-1.41-5.19,4.6,4.6,0,0,0-3.93-1.91,4.6,4.6,0,0,0-3.93,1.91,8.57,8.57,0,0,0-1.41,5.19,8.74,8.74,0,0,0,1.41,5.25,4.58,4.58,0,0,0,3.93,1.93,4.58,4.58,0,0,0,3.93-1.93A8.75,8.75,0,0,0,39.9,24.55Z"/><path class="cls-12" d="M63,21.73q-1,3.7-2.08,7.2t-2.2,6.62H54.57q-0.84-1.93-1.77-4.41T51,25.85Q50,23,49.1,19.93t-1.81-6.34h5.38q0.38,1.76.89,3.8t1.06,4.16q0.55,2.12,1.14,4.14t1.18,3.7q0.63-1.93,1.24-4t1.16-4.12q0.55-2.06,1-4t0.86-3.67h3.91q0.38,1.72.84,3.67t1,4q0.52,2.06,1.13,4.12t1.24,4q0.55-1.68,1.14-3.7t1.16-4.14q0.57-2.12,1.08-4.16t0.89-3.8h5.25Q78,16.82,77,19.93t-1.85,5.92q-0.93,2.81-1.85,5.29t-1.81,4.41H67.38q-1.09-3.11-2.24-6.62T63,21.73Z"/><path class="cls-12" d="M105.63,36.18a16.19,16.19,0,0,1-5.88-1,11.62,11.62,0,0,1-4.41-3,13.24,13.24,0,0,1-2.77-4.77,19.87,19.87,0,0,1-1-6.47,17.49,17.49,0,0,1,1.11-6.47,14,14,0,0,1,3-4.77,12.79,12.79,0,0,1,4.54-3,15.32,15.32,0,0,1,5.59-1,18.05,18.05,0,0,1,3.28.27,23.52,23.52,0,0,1,2.56.61,10.6,10.6,0,0,1,1.81.71l1,0.55L113,12.24A12.3,12.3,0,0,0,110.1,11a13.91,13.91,0,0,0-4.05-.57,9.47,9.47,0,0,0-3.53.65,7.64,7.64,0,0,0-2.83,2,9.1,9.1,0,0,0-1.87,3.28,14.2,14.2,0,0,0-.67,4.58,16.14,16.14,0,0,0,.52,4.24,9.38,9.38,0,0,0,1.62,3.34,7.36,7.36,0,0,0,2.77,2.18,9.55,9.55,0,0,0,4,.78,15.3,15.3,0,0,0,4.58-.57,18.19,18.19,0,0,0,2.73-1.07l1.43,4.33a7.23,7.23,0,0,1-1.37.67,19.55,19.55,0,0,1-2,.65,20.1,20.1,0,0,1-2.65.5A24.75,24.75,0,0,1,105.63,36.18Z"/><path class="cls-12" d="M131.75,18.17a16.36,16.36,0,0,0-1.74-.44,12.87,12.87,0,0,0-2.58-.23,10.18,10.18,0,0,0-1.78.17,10.78,10.78,0,0,0-1.32.29v17.6h-5.08V14.64a28.08,28.08,0,0,1,3.68-1,23,23,0,0,1,4.89-.48q0.5,0,1.18.06t1.34,0.17q0.67,0.11,1.3.25t1,0.27Z"/><path class="cls-12" d="M141.83,7.16a2.91,2.91,0,0,1-.92,2.27,3.14,3.14,0,0,1-2.18.84,3.19,3.19,0,0,1-2.23-.84,2.91,2.91,0,0,1-.92-2.27,3,3,0,0,1,.92-2.31A3.19,3.19,0,0,1,138.73,4a3.14,3.14,0,0,1,2.18.84A3,3,0,0,1,141.83,7.16Zm-0.55,28.39h-5.08v-22h5.08v22Z"/><path class="cls-12" d="M160.27,24a10.71,10.71,0,0,0-.86-5,3.36,3.36,0,0,0-3.21-1.53,15,15,0,0,0-1.85.13l-1.51.21V35.55h-5.08V14.3a34,34,0,0,1,3.84-.8,31.9,31.9,0,0,1,5-.38,10,10,0,0,1,3.72.59,7.21,7.21,0,0,1,2.42,1.55,9.91,9.91,0,0,1,1.18-.71,12.15,12.15,0,0,1,1.6-.69,14.66,14.66,0,0,1,1.87-.52,9.58,9.58,0,0,1,2-.21,10.49,10.49,0,0,1,4.22.73,6.2,6.2,0,0,1,2.6,2.06,8,8,0,0,1,1.3,3.19,21.93,21.93,0,0,1,.36,4.1V35.55h-5.08V24a10.93,10.93,0,0,0-.84-5,3.35,3.35,0,0,0-3.23-1.53,6.68,6.68,0,0,0-2.31.4,7.52,7.52,0,0,0-1.64.78,11.24,11.24,0,0,1,.46,2.23,23.72,23.72,0,0,1,.13,2.52V35.55h-5.08V24Z"/><path class="cls-12" d="M182.87,24.67a13.8,13.8,0,0,1,.86-5.08A10.66,10.66,0,0,1,186,16a9.47,9.47,0,0,1,3.28-2.18,10.16,10.16,0,0,1,3.78-.73,9.05,9.05,0,0,1,7.08,2.81q2.54,2.81,2.54,8.4c0,0.28,0,.59,0,0.95s0,0.67-.06.94H188.12A5.79,5.79,0,0,0,190,30.24a7.1,7.1,0,0,0,4.81,1.45,15.78,15.78,0,0,0,3.38-.34,13.92,13.92,0,0,0,2.42-.71l0.67,4.16a8,8,0,0,1-1.16.44,16.49,16.49,0,0,1-1.68.42q-0.95.19-2,.31a19.42,19.42,0,0,1-2.23.13,13.47,13.47,0,0,1-5-.86,9.37,9.37,0,0,1-3.53-2.39,9.79,9.79,0,0,1-2.06-3.61A14.74,14.74,0,0,1,182.87,24.67Zm14.74-2.27a6.68,6.68,0,0,0-.29-2,4.81,4.81,0,0,0-.86-1.64,4.08,4.08,0,0,0-1.39-1.09,4.42,4.42,0,0,0-2-.4,4.55,4.55,0,0,0-2.06.44,4.7,4.7,0,0,0-1.49,1.16,5.28,5.28,0,0,0-.94,1.64,8.84,8.84,0,0,0-.46,1.89h9.45Z"/><path class="cls-12" d="M226.13,6.15q6.3,0,9.64,2.31t3.34,7.06q0,5.92-5.84,8,0.8,1,1.81,2.35t2.06,3q1,1.62,2,3.32t1.72,3.34h-5.92q-0.8-1.51-1.72-3t-1.87-3q-0.94-1.45-1.87-2.73t-1.72-2.29q-0.59,0-1,0H223.4v11H218.1V6.87a28.38,28.38,0,0,1,4.12-.57Q224.4,6.15,226.13,6.15Zm0.38,4.58q-1.68,0-3.11.13v9.41h2.31a24.24,24.24,0,0,0,3.4-.21,7.15,7.15,0,0,0,2.46-.76,3.67,3.67,0,0,0,1.49-1.47,4.88,4.88,0,0,0,.5-2.35,4.68,4.68,0,0,0-.5-2.27,3.75,3.75,0,0,0-1.45-1.47,6.88,6.88,0,0,0-2.25-.78A16.46,16.46,0,0,0,226.5,10.73Z"/><path class="cls-12" d="M252,13a12.44,12.44,0,0,1,4.24.63A6.78,6.78,0,0,1,259,15.43a6.62,6.62,0,0,1,1.47,2.75,13.47,13.47,0,0,1,.44,3.55V35q-1.18.25-3.55,0.61A36.35,36.35,0,0,1,252,36a16.07,16.07,0,0,1-3.61-.38,7.58,7.58,0,0,1-2.79-1.22,5.73,5.73,0,0,1-1.81-2.18,7.56,7.56,0,0,1-.65-3.32,6.4,6.4,0,0,1,.73-3.19,6,6,0,0,1,2-2.12,8.64,8.64,0,0,1,2.92-1.18,16.47,16.47,0,0,1,3.46-.36,15.81,15.81,0,0,1,1.76.11,16.39,16.39,0,0,1,2,.36V21.69a6.57,6.57,0,0,0-.21-1.68,3.49,3.49,0,0,0-.73-1.41,3.45,3.45,0,0,0-1.39-.94,6,6,0,0,0-2.16-.34,19.19,19.19,0,0,0-3.23.25,14.22,14.22,0,0,0-2.39.59L245.28,14a20.13,20.13,0,0,1,2.81-.67A22.09,22.09,0,0,1,252,13ZM252.46,32a18.92,18.92,0,0,0,3.57-.25V26.1a9.92,9.92,0,0,0-1.22-.25,11.36,11.36,0,0,0-1.76-.13,11.73,11.73,0,0,0-1.7.13,5.31,5.31,0,0,0-1.55.46,2.82,2.82,0,0,0-1.11.95,2.64,2.64,0,0,0-.42,1.53,2.69,2.69,0,0,0,1.13,2.5A5.85,5.85,0,0,0,252.46,32Z"/><path class="cls-12" d="M266.91,7.79L272,7v6.64h7.81v4.24H272v8.95a6.5,6.5,0,0,0,.84,3.78,3.33,3.33,0,0,0,2.86,1.13,9.29,9.29,0,0,0,2.46-.29,16.41,16.41,0,0,0,1.7-.55l0.84,4a19.2,19.2,0,0,1-2.31.78,12.59,12.59,0,0,1-3.36.4,10.63,10.63,0,0,1-3.93-.63,5.79,5.79,0,0,1-2.5-1.83,7.24,7.24,0,0,1-1.3-2.9,18,18,0,0,1-.38-3.89v-19Z"/><path class="cls-12" d="M283.12,24.67a13.8,13.8,0,0,1,.86-5.08A10.66,10.66,0,0,1,286.27,16a9.47,9.47,0,0,1,3.28-2.18,10.16,10.16,0,0,1,3.78-.73,9.05,9.05,0,0,1,7.08,2.81q2.54,2.81,2.54,8.4c0,0.28,0,.59,0,0.95s0,0.67-.06.94H288.37a5.79,5.79,0,0,0,1.87,4.09A7.1,7.1,0,0,0,295,31.69a15.78,15.78,0,0,0,3.38-.34,13.92,13.92,0,0,0,2.42-.71l0.67,4.16a8,8,0,0,1-1.16.44,16.49,16.49,0,0,1-1.68.42q-0.95.19-2,.31a19.42,19.42,0,0,1-2.23.13,13.47,13.47,0,0,1-5-.86,9.37,9.37,0,0,1-3.53-2.39,9.79,9.79,0,0,1-2.06-3.61A14.74,14.74,0,0,1,283.12,24.67Zm14.74-2.27a6.68,6.68,0,0,0-.29-2,4.81,4.81,0,0,0-.86-1.64,4.08,4.08,0,0,0-1.39-1.09,4.42,4.42,0,0,0-2-.4,4.55,4.55,0,0,0-2.06.44,4.7,4.7,0,0,0-1.49,1.16,5.28,5.28,0,0,0-.94,1.64,8.84,8.84,0,0,0-.46,1.89h9.45Z"/><path class="cls-12" d="M1532,29.44a7.05,7.05,0,0,0,4.16-1,3.2,3.2,0,0,0,1.3-2.73,3.53,3.53,0,0,0-.44-1.81,4.62,4.62,0,0,0-1.26-1.37,10.68,10.68,0,0,0-2-1.13q-1.18-.52-2.69-1t-2.92-1.2a9.79,9.79,0,0,1-2.48-1.62,7.42,7.42,0,0,1-1.72-2.31,7.37,7.37,0,0,1-.65-3.23,7.59,7.59,0,0,1,2.73-6.2,11.35,11.35,0,0,1,7.43-2.25,17.63,17.63,0,0,1,4.85.61,14.87,14.87,0,0,1,3.34,1.32L1540,9.82a12.55,12.55,0,0,0-3.13-1.22,14.61,14.61,0,0,0-3.51-.42,5.54,5.54,0,0,0-3.34.88,2.9,2.9,0,0,0-1.2,2.48,3.25,3.25,0,0,0,.4,1.66,4.08,4.08,0,0,0,1.13,1.24,10,10,0,0,0,1.72,1q1,0.46,2.16.88,2.06,0.76,3.67,1.53a10.38,10.38,0,0,1,2.73,1.85,7.25,7.25,0,0,1,1.7,2.52,9.36,9.36,0,0,1,.59,3.51,7.28,7.28,0,0,1-2.79,6.11Q1537.35,34,1532,34a21.72,21.72,0,0,1-3.3-.23,21.19,21.19,0,0,1-2.65-.57,17.83,17.83,0,0,1-2-.69,12.05,12.05,0,0,1-1.34-.65l1.55-4.33a18,18,0,0,0,3.07,1.26A15.14,15.14,0,0,0,1532,29.44Z"/><path class="cls-12" d="M1546.13,22.51a13.8,13.8,0,0,1,.86-5.08,10.64,10.64,0,0,1,2.29-3.63,9.47,9.47,0,0,1,3.28-2.18,10.16,10.16,0,0,1,3.78-.73,9.05,9.05,0,0,1,7.08,2.81q2.54,2.81,2.54,8.4c0,0.28,0,.59,0,0.95s0,0.67-.06.94h-14.49a5.78,5.78,0,0,0,1.87,4.09,7.1,7.1,0,0,0,4.81,1.45,15.76,15.76,0,0,0,3.38-.34,14,14,0,0,0,2.42-.71l0.67,4.16a8.05,8.05,0,0,1-1.16.44,16.42,16.42,0,0,1-1.68.42q-0.94.19-2,.31a19.41,19.41,0,0,1-2.23.13,13.46,13.46,0,0,1-5-.86,9.37,9.37,0,0,1-3.53-2.39,9.78,9.78,0,0,1-2.06-3.61A14.74,14.74,0,0,1,1546.13,22.51Zm14.74-2.27a6.67,6.67,0,0,0-.29-2,4.8,4.8,0,0,0-.86-1.64,4.08,4.08,0,0,0-1.39-1.09,4.43,4.43,0,0,0-2-.4,4.55,4.55,0,0,0-2.06.44,4.69,4.69,0,0,0-1.49,1.16,5.28,5.28,0,0,0-.95,1.64,8.84,8.84,0,0,0-.46,1.89h9.45Z"/><path class="cls-12" d="M1577,33.38q-2.11-4.33-4.32-9.93a125.69,125.69,0,0,1-4-12h5.42q0.46,1.85,1.08,4t1.31,4.24q0.69,2.12,1.43,4.12t1.37,3.59q0.63-1.6,1.35-3.59t1.41-4.12q0.69-2.12,1.33-4.24t1.1-4h5.25a125.69,125.69,0,0,1-4,12q-2.21,5.61-4.32,9.93H1577Z"/><path class="cls-12" d="M1591.7,22.51a13.8,13.8,0,0,1,.86-5.08,10.66,10.66,0,0,1,2.29-3.63,9.48,9.48,0,0,1,3.28-2.18,10.15,10.15,0,0,1,3.78-.73,9.05,9.05,0,0,1,7.08,2.81q2.54,2.81,2.54,8.4c0,0.28,0,.59,0,0.95s0,0.67-.06.94h-14.49a5.78,5.78,0,0,0,1.87,4.09,7.1,7.1,0,0,0,4.81,1.45,15.78,15.78,0,0,0,3.38-.34,13.93,13.93,0,0,0,2.42-.71l0.67,4.16a8,8,0,0,1-1.16.44,16.49,16.49,0,0,1-1.68.42q-0.95.19-2,.31a19.43,19.43,0,0,1-2.23.13,13.46,13.46,0,0,1-5-.86,9.37,9.37,0,0,1-3.53-2.39,9.78,9.78,0,0,1-2.06-3.61A14.71,14.71,0,0,1,1591.7,22.51Zm14.74-2.27a6.7,6.7,0,0,0-.29-2,4.8,4.8,0,0,0-.86-1.64,4.07,4.07,0,0,0-1.39-1.09,4.42,4.42,0,0,0-2-.4,4.55,4.55,0,0,0-2.06.44,4.69,4.69,0,0,0-1.49,1.16,5.26,5.26,0,0,0-.94,1.64,8.84,8.84,0,0,0-.46,1.89h9.45Z"/><path class="cls-12" d="M1629.41,16a16.36,16.36,0,0,0-1.74-.44,12.88,12.88,0,0,0-2.58-.23,10.18,10.18,0,0,0-1.78.17,10.8,10.8,0,0,0-1.32.29v17.6h-5.08V12.47a28.09,28.09,0,0,1,3.68-1,22.94,22.94,0,0,1,4.89-.48q0.5,0,1.18.06c0.45,0,.9.1,1.34,0.17s0.88,0.15,1.3.25,0.76,0.19,1,.27Z"/><path class="cls-12" d="M1656.79,34a16.19,16.19,0,0,1-5.88-1,11.62,11.62,0,0,1-4.41-3,13.24,13.24,0,0,1-2.77-4.77,19.87,19.87,0,0,1-1-6.47,17.49,17.49,0,0,1,1.11-6.47,14,14,0,0,1,3-4.77,12.79,12.79,0,0,1,4.54-3,15.32,15.32,0,0,1,5.59-1,18,18,0,0,1,3.28.27,23.54,23.54,0,0,1,2.56.61,10.6,10.6,0,0,1,1.8.71l1,0.55-1.55,4.33a12.31,12.31,0,0,0-2.88-1.2,13.91,13.91,0,0,0-4.05-.57,9.47,9.47,0,0,0-3.53.65,7.63,7.63,0,0,0-2.83,2,9.08,9.08,0,0,0-1.87,3.28,14.17,14.17,0,0,0-.67,4.58,16.12,16.12,0,0,0,.52,4.24,9.39,9.39,0,0,0,1.62,3.34,7.35,7.35,0,0,0,2.77,2.18,9.55,9.55,0,0,0,4,.78,15.3,15.3,0,0,0,4.58-.57,18.22,18.22,0,0,0,2.73-1.07L1666,32a7.21,7.21,0,0,1-1.37.67,19.59,19.59,0,0,1-2,.65,20.1,20.1,0,0,1-2.65.5A24.73,24.73,0,0,1,1656.79,34Z"/><path class="cls-12" d="M1682.92,16a16.36,16.36,0,0,0-1.74-.44,12.87,12.87,0,0,0-2.58-.23,10.18,10.18,0,0,0-1.79.17,10.76,10.76,0,0,0-1.32.29v17.6h-5.08V12.47a28.07,28.07,0,0,1,3.67-1A23,23,0,0,1,1679,11q0.51,0,1.18.06t1.34,0.17q0.67,0.11,1.3.25t1,0.27Z"/><path class="cls-12" d="M1693,5a2.91,2.91,0,0,1-.92,2.27,3.14,3.14,0,0,1-2.18.84,3.19,3.19,0,0,1-2.23-.84,2.91,2.91,0,0,1-.92-2.27,3,3,0,0,1,.92-2.31,3.2,3.2,0,0,1,2.23-.84,3.14,3.14,0,0,1,2.18.84A3,3,0,0,1,1693,5Zm-0.55,28.39h-5.08v-22h5.08v22Z"/><path class="cls-12" d="M1711.43,21.83a10.73,10.73,0,0,0-.86-5,3.36,3.36,0,0,0-3.21-1.53,15,15,0,0,0-1.85.13l-1.51.21V33.38h-5.08V12.13a34.07,34.07,0,0,1,3.84-.8,31.91,31.91,0,0,1,5-.38,10,10,0,0,1,3.72.59,7.21,7.21,0,0,1,2.41,1.55,10,10,0,0,1,1.18-.71,12.19,12.19,0,0,1,1.6-.69,14.66,14.66,0,0,1,1.87-.52,9.58,9.58,0,0,1,2-.21,10.49,10.49,0,0,1,4.22.73,6.2,6.2,0,0,1,2.6,2.06,8,8,0,0,1,1.3,3.19A21.93,21.93,0,0,1,1729,21V33.38H1724V21.83a10.94,10.94,0,0,0-.84-5,3.35,3.35,0,0,0-3.23-1.53,6.69,6.69,0,0,0-2.31.4,7.52,7.52,0,0,0-1.64.78,11.24,11.24,0,0,1,.46,2.23,23.72,23.72,0,0,1,.13,2.52V33.38h-5.08V21.83Z"/><path class="cls-12" d="M1734,22.51a13.8,13.8,0,0,1,.86-5.08,10.69,10.69,0,0,1,2.29-3.63,9.48,9.48,0,0,1,3.28-2.18,10.15,10.15,0,0,1,3.78-.73,9,9,0,0,1,7.08,2.81q2.54,2.81,2.54,8.4c0,0.28,0,.59,0,0.95s0,0.67-.06.94h-14.49a5.79,5.79,0,0,0,1.87,4.09,7.1,7.1,0,0,0,4.81,1.45,15.79,15.79,0,0,0,3.38-.34,13.89,13.89,0,0,0,2.41-.71l0.67,4.16a8,8,0,0,1-1.15.44,16.56,16.56,0,0,1-1.68.42q-0.95.19-2,.31a19.43,19.43,0,0,1-2.23.13,13.47,13.47,0,0,1-5-.86,9.37,9.37,0,0,1-3.53-2.39,9.81,9.81,0,0,1-2.06-3.61A14.74,14.74,0,0,1,1734,22.51Zm14.74-2.27a6.7,6.7,0,0,0-.29-2,4.83,4.83,0,0,0-.86-1.64,4.07,4.07,0,0,0-1.39-1.09,4.42,4.42,0,0,0-2-.4,4.54,4.54,0,0,0-2.06.44,4.71,4.71,0,0,0-1.49,1.16,5.28,5.28,0,0,0-.94,1.64,8.84,8.84,0,0,0-.46,1.89h9.45Z"/><path class="cls-12" d="M1777.29,4q6.3,0,9.64,2.31t3.34,7.06q0,5.92-5.84,8,0.8,1,1.81,2.35t2.06,3q1,1.62,2,3.32t1.72,3.34h-5.92q-0.8-1.51-1.72-3t-1.87-3q-0.94-1.45-1.87-2.73t-1.72-2.29q-0.59,0-1,0h-3.36v11h-5.29V4.7a28.37,28.37,0,0,1,4.12-.57Q1775.57,4,1777.29,4Zm0.38,4.58q-1.68,0-3.11.13V18.1h2.31a24.24,24.24,0,0,0,3.4-.21,7.14,7.14,0,0,0,2.46-.76,3.67,3.67,0,0,0,1.49-1.47,4.88,4.88,0,0,0,.5-2.35,4.68,4.68,0,0,0-.5-2.27,3.75,3.75,0,0,0-1.45-1.47,6.89,6.89,0,0,0-2.25-.78A16.45,16.45,0,0,0,1777.67,8.56Z"/><path class="cls-12" d="M1803.2,10.87a12.43,12.43,0,0,1,4.24.63,6.78,6.78,0,0,1,2.75,1.76,6.6,6.6,0,0,1,1.47,2.75,13.43,13.43,0,0,1,.44,3.55V32.88q-1.18.25-3.55,0.61a36.35,36.35,0,0,1-5.36.36,16.07,16.07,0,0,1-3.61-.38,7.58,7.58,0,0,1-2.79-1.22,5.74,5.74,0,0,1-1.81-2.18,7.58,7.58,0,0,1-.65-3.32,6.4,6.4,0,0,1,.73-3.19,6,6,0,0,1,2-2.12,8.64,8.64,0,0,1,2.92-1.18,16.48,16.48,0,0,1,3.46-.36,15.81,15.81,0,0,1,1.76.11,16.36,16.36,0,0,1,2,.36V19.52a6.59,6.59,0,0,0-.21-1.68,3.36,3.36,0,0,0-2.12-2.35,6,6,0,0,0-2.16-.34,19.19,19.19,0,0,0-3.23.25,14.22,14.22,0,0,0-2.39.59l-0.63-4.12a20.16,20.16,0,0,1,2.81-.67A22.09,22.09,0,0,1,1803.2,10.87Zm0.42,18.94a18.92,18.92,0,0,0,3.57-.25V23.93a9.84,9.84,0,0,0-1.22-.25,11.36,11.36,0,0,0-1.76-.13,11.72,11.72,0,0,0-1.7.13,5.3,5.3,0,0,0-1.55.46,2.82,2.82,0,0,0-1.11.95,2.64,2.64,0,0,0-.42,1.53,2.69,2.69,0,0,0,1.13,2.5A5.85,5.85,0,0,0,1803.62,29.81Z"/><path class="cls-12" d="M1818.07,5.62l5.08-.84v6.64H1831v4.24h-7.81v8.95a6.5,6.5,0,0,0,.84,3.78,3.33,3.33,0,0,0,2.86,1.13,9.3,9.3,0,0,0,2.46-.29,16.45,16.45,0,0,0,1.7-.55l0.84,4a19.23,19.23,0,0,1-2.31.78,12.58,12.58,0,0,1-3.36.4,10.64,10.64,0,0,1-3.93-.63,5.79,5.79,0,0,1-2.5-1.83,7.22,7.22,0,0,1-1.3-2.9,18,18,0,0,1-.38-3.89v-19Z"/><path class="cls-12" d="M1834.28,22.51a13.8,13.8,0,0,1,.86-5.08,10.69,10.69,0,0,1,2.29-3.63,9.48,9.48,0,0,1,3.28-2.18,10.15,10.15,0,0,1,3.78-.73,9,9,0,0,1,7.08,2.81q2.54,2.81,2.54,8.4c0,0.28,0,.59,0,0.95s0,0.67-.06.94h-14.49a5.79,5.79,0,0,0,1.87,4.09,7.1,7.1,0,0,0,4.81,1.45,15.79,15.79,0,0,0,3.38-.34,13.89,13.89,0,0,0,2.41-.71l0.67,4.16a8,8,0,0,1-1.15.44,16.56,16.56,0,0,1-1.68.42q-0.95.19-2,.31a19.43,19.43,0,0,1-2.23.13,13.47,13.47,0,0,1-5-.86,9.37,9.37,0,0,1-3.53-2.39,9.81,9.81,0,0,1-2.06-3.61A14.74,14.74,0,0,1,1834.28,22.51ZM1849,20.24a6.7,6.7,0,0,0-.29-2,4.83,4.83,0,0,0-.86-1.64,4.07,4.07,0,0,0-1.39-1.09,4.42,4.42,0,0,0-2-.4,4.54,4.54,0,0,0-2.06.44,4.71,4.71,0,0,0-1.49,1.16,5.28,5.28,0,0,0-.94,1.64,8.84,8.84,0,0,0-.46,1.89H1849Z"/></svg>